<svg xmlns="http://www.w3.org/2000/svg" width="24.713" height="24.713" viewBox="222.804 767.356 24.713 24.713"><g data-name="coin"><g data-name="Group 69874"><path d="M235.16 767.356c-6.811 0-12.356 5.545-12.356 12.357 0 6.811 5.545 12.356 12.356 12.356 6.812 0 12.357-5.545 12.357-12.356 0-6.812-5.545-12.357-12.357-12.357Zm0 22.155c-5.402 0-9.798-4.396-9.798-9.798 0-5.403 4.396-9.799 9.798-9.799s9.799 4.396 9.799 9.799c0 5.402-4.397 9.798-9.799 9.798Z" fill="#484848" fill-rule="evenodd" data-name="Path 2903"/><path d="M237.269 779.018c-.597-.332-1.23-.577-1.859-.837a4.063 4.063 0 0 1-1.016-.572c-.602-.485-.49-1.266.22-1.578.199-.087.408-.117.623-.127a4.712 4.712 0 0 1 2.343.464c.368.179.49.123.618-.26.133-.409.245-.822.363-1.23.081-.276-.02-.46-.281-.573a5.75 5.75 0 0 0-1.48-.439c-.67-.107-.67-.107-.675-.781-.005-.955-.005-.955-.955-.95-.137 0-.275-.005-.413 0-.444.016-.521.092-.531.536-.005.2 0 .404 0 .603-.005.597-.005.587-.577.791-1.379.5-2.232 1.44-2.323 2.947-.082 1.332.612 2.23 1.705 2.884.674.404 1.42.644 2.134.96.281.123.547.266.776.46.69.567.562 1.511-.255 1.869-.439.189-.899.24-1.368.178-.73-.092-1.43-.28-2.084-.623-.382-.199-.495-.148-.628.271-.112.363-.214.725-.311 1.088-.133.49-.087.607.383.832.592.286 1.23.434 1.879.541.505.082.526.102.53.628 0 .24.006.48.006.715.005.301.148.475.46.48.352.005.704.005 1.057 0 .285-.005.434-.163.439-.454 0-.327.015-.654.005-.98-.016-.333.127-.501.449-.588a3.566 3.566 0 0 0 1.848-1.185c1.328-1.633.817-4.018-1.082-5.07Z" fill="#484848" fill-rule="evenodd" data-name="Path 2904"/></g></g></svg>