<svg xmlns="http://www.w3.org/2000/svg" width="22" height="22" viewBox="225.517 757 22 22"><g data-name="coin"><g data-name="Group 69874"><path d="M236.517 757c-6.064 0-11 4.936-11 11s4.936 11 11 11c6.063 0 11-4.936 11-11s-4.937-11-11-11Zm0 19.723c-4.81 0-8.723-3.914-8.723-8.723 0-4.81 3.914-8.723 8.723-8.723 4.809 0 8.722 3.914 8.722 8.723 0 4.81-3.913 8.723-8.722 8.723Z" fill="#fff" fill-rule="evenodd" data-name="Path 2903"/><path d="M238.394 767.382c-.532-.296-1.096-.514-1.655-.746a3.617 3.617 0 0 1-.904-.509c-.537-.432-.437-1.127.195-1.404a1.55 1.55 0 0 1 .555-.114 4.195 4.195 0 0 1 2.086.414c.327.159.437.109.55-.232.118-.364.218-.732.323-1.096.073-.245-.018-.409-.25-.509a5.12 5.12 0 0 0-1.318-.39c-.596-.096-.596-.096-.6-.696-.005-.85-.005-.85-.85-.845-.123 0-.246-.005-.368 0-.396.013-.464.081-.473.477-.005.177 0 .359 0 .536-.005.532-.005.523-.514.705-1.227.445-1.986 1.282-2.068 2.622-.073 1.187.545 1.987 1.518 2.569.6.359 1.264.572 1.9.854.25.11.487.237.691.41.614.504.5 1.345-.227 1.663-.391.168-.8.214-1.218.159-.65-.082-1.273-.25-1.855-.555-.34-.177-.44-.131-.559.241-.1.323-.19.646-.277.969-.118.436-.078.54.34.74.528.255 1.096.387 1.673.482.45.073.469.091.473.56 0 .213.005.427.005.636.004.268.131.422.409.427.313.005.627.005.94 0 .255-.005.387-.145.392-.404 0-.291.013-.582.004-.873-.014-.296.114-.446.4-.523a3.175 3.175 0 0 0 1.646-1.054c1.181-1.455.727-3.578-.964-4.514Z" fill="#fff" fill-rule="evenodd" data-name="Path 2904"/></g></g></svg>