<svg xmlns="http://www.w3.org/2000/svg" width="31.733" height="22" viewBox="123.57 757 31.733 22"><g data-name="delivery"><g data-name="Group 69856"><g data-name="Group 69855"><path d="M147.537 771c-2.206 0-4 1.794-4 4s1.794 4 4 4 4-1.794 4-4-1.795-4-4-4Zm0 6c-1.103 0-2-.897-2-2s.897-2 2-2 2 .897 2 2-.897 2-2 2Z" fill="#3b63a9" fill-rule="evenodd" data-name="Path 2881"/></g></g><g data-name="Group 69858"><g data-name="Group 69857"><path d="M133.87 771c-2.205 0-4 1.794-4 4s1.795 4 4 4c2.206 0 4-1.794 4-4s-1.794-4-4-4Zm0 6c-1.103 0-2-.897-2-2s.897-2 2-2 2 .897 2 2-.897 2-2 2Z" fill="#3b63a9" fill-rule="evenodd" data-name="Path 2882"/></g></g><g data-name="Group 69860"><g data-name="Group 69859"><path d="M150.23 759.55a1 1 0 0 0-.893-.55h-5.267v2h4.65l2.723 5.416 1.787-.899-3-5.966Z" fill="#3b63a9" fill-rule="evenodd" data-name="Path 2883"/></g></g><g data-name="Group 69862"><g data-name="Group 69861"><path d="M136.97 774.033h7.567v2h-7.567v-2z" fill="#3b63a9" fill-rule="evenodd" data-name="Rectangle 18112"/></g></g><g data-name="Group 69864"><g data-name="Group 69863"><path d="M130.87 774.033h-3.466a1 1 0 1 0 0 2h3.466a1 1 0 1 0 0-2Z" fill="#3b63a9" fill-rule="evenodd" data-name="Path 2884"/></g></g><g data-name="Group 69866"><g data-name="Group 69865"><path d="m155.094 767.92-1.967-2.533a.999.999 0 0 0-.79-.387h-7.267v-7a1 1 0 0 0-1-1h-16.666a1 1 0 1 0 0 2h15.666v7a1 1 0 0 0 1 1h7.777l1.457 1.876v5.157h-2.767a1 1 0 1 0 0 2h3.767a1 1 0 0 0 1-1v-6.5c0-.222-.074-.438-.21-.613Z" fill="#3b63a9" fill-rule="evenodd" data-name="Path 2885"/></g></g><g data-name="Group 69868"><g data-name="Group 69867"><path d="M130.804 768.967h-4.6a1 1 0 1 0 0 2h4.6a1 1 0 1 0 0-2Z" fill="#3b63a9" fill-rule="evenodd" data-name="Path 2886"/></g></g><g data-name="Group 69870"><g data-name="Group 69869"><path d="M133.104 765.033h-8.534a1 1 0 1 0 0 2h8.534a1 1 0 1 0 0-2Z" fill="#3b63a9" fill-rule="evenodd" data-name="Path 2887"/></g></g><g data-name="Group 69872"><g data-name="Group 69871"><path d="M134.737 761.1h-8.534a1 1 0 1 0 0 2h8.534a1 1 0 1 0 0-2Z" fill="#3b63a9" fill-rule="evenodd" data-name="Path 2888"/></g></g></g></svg>