<svg xmlns="http://www.w3.org/2000/svg" width="34.304" height="23.782" viewBox="121 767.61 34.304 23.782"><g data-name="delivery"><g data-name="Group 69856"><g data-name="Group 69855"><path d="M146.908 782.744a4.329 4.329 0 0 0-4.324 4.324 4.329 4.329 0 0 0 4.324 4.324 4.329 4.329 0 0 0 4.324-4.324 4.329 4.329 0 0 0-4.324-4.324Zm0 6.486a2.164 2.164 0 0 1-2.162-2.162c0-1.193.97-2.162 2.162-2.162s2.162.97 2.162 2.162-.97 2.162-2.162 2.162Z" fill="#484848" fill-rule="evenodd" data-name="Path 2881"/></g></g><g data-name="Group 69858"><g data-name="Group 69857"><path d="M132.134 782.744a4.329 4.329 0 0 0-4.324 4.324 4.329 4.329 0 0 0 4.324 4.324 4.329 4.329 0 0 0 4.324-4.324 4.329 4.329 0 0 0-4.324-4.324Zm0 6.486a2.164 2.164 0 0 1-2.162-2.162c0-1.193.97-2.162 2.162-2.162s2.162.97 2.162 2.162-.97 2.162-2.162 2.162Z" fill="#484848" fill-rule="evenodd" data-name="Path 2882"/></g></g><g data-name="Group 69860"><g data-name="Group 69859"><path d="M149.82 770.367a1.082 1.082 0 0 0-.966-.595h-5.694v2.162h5.027l2.944 5.855 1.932-.972-3.243-6.45Z" fill="#484848" fill-rule="evenodd" data-name="Path 2883"/></g></g><g data-name="Group 69862"><g data-name="Group 69861"><path d="M135.485 786.023h8.18v2.162h-8.18v-2.162z" fill="#484848" fill-rule="evenodd" data-name="Rectangle 18112"/></g></g><g data-name="Group 69864"><g data-name="Group 69863"><path d="M128.891 786.023h-3.747a1.08 1.08 0 1 0 0 2.162h3.747a1.08 1.08 0 1 0 0-2.162Z" fill="#484848" fill-rule="evenodd" data-name="Path 2884"/></g></g><g data-name="Group 69866"><g data-name="Group 69865"><path d="m155.077 779.414-2.127-2.738a1.08 1.08 0 0 0-.853-.418h-7.856v-7.567a1.08 1.08 0 0 0-1.08-1.081h-18.017a1.08 1.08 0 1 0 0 2.162h16.935v7.567a1.08 1.08 0 0 0 1.081 1.08h8.407l1.575 2.029v5.575h-2.991a1.08 1.08 0 1 0 0 2.162h4.072c.597 0 1.08-.484 1.08-1.081v-7.027c0-.24-.08-.473-.226-.663Z" fill="#484848" fill-rule="evenodd" data-name="Path 2885"/></g></g><g data-name="Group 69868"><g data-name="Group 69867"><path d="M128.82 780.546h-4.973a1.08 1.08 0 1 0 0 2.162h4.972a1.08 1.08 0 1 0 0-2.162Z" fill="#484848" fill-rule="evenodd" data-name="Path 2886"/></g></g><g data-name="Group 69870"><g data-name="Group 69869"><path d="M131.305 776.294h-9.224a1.081 1.081 0 1 0 0 2.162h9.224a1.08 1.08 0 1 0 0-2.162Z" fill="#484848" fill-rule="evenodd" data-name="Path 2887"/></g></g><g data-name="Group 69872"><g data-name="Group 69871"><path d="M133.071 772.042h-9.224a1.08 1.08 0 1 0 0 2.162h9.224a1.08 1.08 0 1 0 0-2.162Z" fill="#484848" fill-rule="evenodd" data-name="Path 2888"/></g></g></g></svg>