<svg xmlns="http://www.w3.org/2000/svg" width="32.453" height="32.411" viewBox="41 472 32.453 32.411"><g data-name="cancel"><path d="M55.58 495.405h-6.181a.95.95 0 0 0 0 1.899h6.18a.95.95 0 1 0 0-1.9Z" fill="#3b63a9" fill-rule="evenodd" data-name="Path 2878"/><path d="M65.793 472c-4.935 0-8.6 4.63-7.452 9.432H43.7A2.702 2.702 0 0 0 41 484.131v17.581a2.702 2.702 0 0 0 2.699 2.699h17.58c1.489 0 2.7-1.211 2.7-2.699v-14.61c.582.142 1.19.217 1.814.217 4.224 0 7.66-3.436 7.66-7.66 0-4.223-3.436-7.659-7.66-7.659Zm-16.1 11.331h5.592v4.906l-1.844-1.13a1.82 1.82 0 0 0-1.906 0l-1.842 1.13v-4.906Zm12.387 18.381a.8.8 0 0 1-.8.8H43.699a.8.8 0 0 1-.8-.8v-17.581a.8.8 0 0 1 .8-.8h4.095v5.04c0 1.43 1.573 2.296 2.777 1.555l1.918-1.176 1.917 1.176c1.216.746 2.778-.134 2.778-1.555v-5.04h1.889a7.705 7.705 0 0 0 3.007 3.026v15.355Zm3.713-16.292c-1.75 0-3.36-.791-4.431-2.084-3.104-3.737-.44-9.437 4.431-9.437a5.767 5.767 0 0 1 5.76 5.76 5.767 5.767 0 0 1-5.76 5.761Z" fill="#3b63a9" fill-rule="evenodd" data-name="Path 2879"/><path d="m67.136 479.66 1.283-1.284a.95.95 0 0 0-1.342-1.343l-1.283 1.284-1.284-1.284a.95.95 0 1 0-1.343 1.343l1.283 1.284-1.283 1.283a.95.95 0 0 0 1.343 1.343l1.284-1.283 1.283 1.283a.946.946 0 0 0 .671.278c.838 0 1.272-1.021.672-1.621l-1.284-1.283Z" fill="#3b63a9" fill-rule="evenodd" data-name="Path 2880"/></g></svg>