<svg xmlns="http://www.w3.org/2000/svg" width="17" height="17" viewBox="10 11.559 17 17"><g data-name="图层_x0020_1"><path d="M10 20.009a8.5 8.5 0 1 1 0 .1z" fill="#fff" fill-rule="evenodd" data-name="Ellipse 36"/><path d="m15.939 24.109-3-3.21a1.097 1.097 0 0 1 .052-1.546 1.097 1.097 0 0 1 1.546.052l2.314 2.476 3.663-3.422c.032-.03.067-.059.102-.085l1.723-1.609a1.097 1.097 0 0 1 1.546.053c.41.44.387 1.135-.053 1.545l-5.26 4.915-.006-.006-1.82 1.7-.807-.864Z" fill="#3b63a9" fill-rule="evenodd" data-name="Path 2835"/></g></svg>