<svg xmlns="http://www.w3.org/2000/svg" width="56.017" height="56.017" viewBox="72 284.684 56.017 56.017"><g data-name="layer1"><path d="M78.002 284.684c-3.29 0-6.002 2.711-6.002 6.001v28.009c0 3.29 2.711 6.002 6.002 6.002h2v2c0 3.29 2.712 6.002 6.002 6.002h2v2c0 3.291 2.712 6.003 6.003 6.003h28.008c3.29 0 6.002-2.712 6.002-6.002V306.69c0-3.29-2.711-6.002-6.002-6.002h-2v-2c0-3.29-2.712-6.002-6.002-6.002h-2v-2c0-3.291-2.712-6.002-6.003-6.002H78.002Zm0 4h28.008c1.143 0 2.001.858 2.001 2.001v2.001H86.004c-3.29 0-6.002 2.711-6.002 6.002v22.007h-2c-1.143 0-2-.858-2-2.001v-28.009c0-1.143.857-2 2-2Zm8.002 8.003h28.009c1.143 0 2 .858 2 2v2.001H94.007c-3.29 0-6.002 2.712-6.002 6.002v22.007h-2c-1.144 0-2.001-.858-2.001-2v-28.01c0-1.142.857-2 2-2Zm8.003 8.003h28.008c1.143 0 2 .857 2 2V334.7c0 1.143-.857 2-2 2H94.007c-1.143 0-2-.857-2-2V306.69c0-1.143.857-2 2-2Z" fill="#fff" fill-rule="evenodd" data-name="rect7384"/><path d="M108.011 308.69a2 2 0 0 0-2 2.001v8.003h-8.003a2 2 0 0 0 0 4.001h8.002v8.003a2 2 0 0 0 4.002 0v-8.003h8.002a2 2 0 1 0 0-4.001h-8.002v-8.003a2 2 0 0 0-2.001-2Z" fill="#fff" fill-rule="evenodd" data-name="path3343"/></g></svg>