<svg xmlns="http://www.w3.org/2000/svg" width="58.132" height="57" viewBox="72 123.684 58.132 57"><path d="m129.706 153.14-4.782-7.971c-.16-.223-.375-.399-.645-.462l-11.465-2.493a12.9 12.9 0 0 0 1.252-5.53c0-7.169-5.832-13-13-13s-13 5.831-13 13c0 1.979.458 3.85 1.253 5.53l-11.465 2.493c-.27.063-.485.239-.645.462l-4.783 7.971c-.965 1.523-.215 3.722 1.48 4.337l3.16 1.237v10.604c0 1.244.748 2.34 1.907 2.794l21.729 8.503a.998.998 0 0 0 .728 0l21.73-8.503a2.983 2.983 0 0 0 1.906-2.794v-10.604l3.16-1.237c1.695-.615 2.445-2.814 1.48-4.337Zm-28.64-27.456c6.066 0 11 4.934 11 11 0 6.065-4.934 11-11 11-6.065 0-11-4.935-11-11 0-6.066 4.935-11 11-11Zm-10.71 18.351c2.346 3.408 6.27 5.649 10.71 5.649 4.44 0 8.365-2.241 10.71-5.649l8.845 1.923-19.555 7.652-19.555-7.652 8.845-1.923Zm-15.722 11.58c-.564-.204-.817-.938-.493-1.446l4.348-7.246 21.11 8.26-4.52 7.537a.999.999 0 0 1-1.223.417l-19.222-7.522Zm25.432 22.604-20.364-7.969a.995.995 0 0 1-.636-.932v-9.821l14.062 5.502c1.34.531 2.908.02 3.665-1.25l3.273-5.455v19.925Zm23-8.9c0 .414-.25.78-.635.931l-20.365 7.969v-19.925l3.273 5.455a2.996 2.996 0 0 0 3.666 1.25l14.061-5.502v9.821Zm4.432-13.704-19.222 7.522a.999.999 0 0 1-1.222-.417l-4.522-7.536 21.111-8.261 4.348 7.246c.324.508.07 1.242-.493 1.446Zm-18.81-24.515c-1.134-1.134-3.111-1.133-4.243 0l-4.969 4.969-1.967-1.672c-1.209-1.069-3.21-.906-4.23.344a3.004 3.004 0 0 0 .345 4.23l4.076 3.462a3.002 3.002 0 0 0 4.063-.166l6.924-6.924c1.164-1.117 1.165-3.126 0-4.243Zm-1.415 2.828-6.925 6.925c-.355.355-.97.381-1.354.055l-4.075-3.462a1.001 1.001 0 0 1-.115-1.41 1.004 1.004 0 0 1 1.41-.115l2.67 2.269a1 1 0 0 0 1.355-.055l5.62-5.621a1.023 1.023 0 0 1 1.414 0 1.004 1.004 0 0 1 0 1.414Z" fill="#fff" fill-rule="evenodd" data-name="completed"/></svg>