<svg xmlns="http://www.w3.org/2000/svg" width="45.326" height="31.424" viewBox="38.143 566.411 45.326 31.424"><g data-name="delivery"><g data-name="Group 69856"><g data-name="Group 69855"><path d="M72.376 586.408a5.72 5.72 0 0 0-5.713 5.714 5.72 5.72 0 0 0 5.713 5.713 5.72 5.72 0 0 0 5.714-5.713 5.72 5.72 0 0 0-5.714-5.714Zm0 8.57a2.86 2.86 0 0 1-2.856-2.856 2.86 2.86 0 0 1 2.856-2.857 2.86 2.86 0 0 1 2.857 2.857 2.86 2.86 0 0 1-2.857 2.856Z" fill="#3b63a9" fill-rule="evenodd" data-name="Path 2881"/></g></g><g data-name="Group 69858"><g data-name="Group 69857"><path d="M52.855 586.408a5.72 5.72 0 0 0-5.713 5.714 5.72 5.72 0 0 0 5.713 5.713 5.72 5.72 0 0 0 5.714-5.713 5.72 5.72 0 0 0-5.714-5.714Zm0 8.57A2.86 2.86 0 0 1 50 592.122a2.86 2.86 0 0 1 2.856-2.857 2.86 2.86 0 0 1 2.857 2.857 2.86 2.86 0 0 1-2.857 2.856Z" fill="#3b63a9" fill-rule="evenodd" data-name="Path 2882"/></g></g><g data-name="Group 69860"><g data-name="Group 69859"><path d="M76.224 570.054a1.43 1.43 0 0 0-1.277-.786h-7.522v2.857h6.641l3.89 7.736 2.553-1.284-4.285-8.523Z" fill="#3b63a9" fill-rule="evenodd" data-name="Path 2883"/></g></g><g data-name="Group 69862"><g data-name="Group 69861"><path d="M57.283 590.74h10.808v2.858H57.283v-2.857z" fill="#3b63a9" fill-rule="evenodd" data-name="Rectangle 18112"/></g></g><g data-name="Group 69864"><g data-name="Group 69863"><path d="M48.57 590.74H43.62a1.428 1.428 0 1 0 0 2.857h4.951a1.428 1.428 0 1 0 0-2.856Z" fill="#3b63a9" fill-rule="evenodd" data-name="Path 2884"/></g></g><g data-name="Group 69866"><g data-name="Group 69865"><path d="m83.17 582.009-2.81-3.619a1.426 1.426 0 0 0-1.128-.552H68.853v-9.999c0-.789-.64-1.428-1.428-1.428H43.619a1.428 1.428 0 1 0 0 2.857h22.377v9.998c0 .79.64 1.429 1.429 1.429h11.108l2.08 2.68v7.366h-3.952a1.428 1.428 0 1 0 0 2.856h5.38c.79 0 1.429-.64 1.429-1.428v-9.284a1.43 1.43 0 0 0-.3-.876Z" fill="#3b63a9" fill-rule="evenodd" data-name="Path 2885"/></g></g><g data-name="Group 69868"><g data-name="Group 69867"><path d="M48.475 583.504h-6.57a1.428 1.428 0 1 0 0 2.857h6.57a1.428 1.428 0 1 0 0-2.857Z" fill="#3b63a9" fill-rule="evenodd" data-name="Path 2886"/></g></g><g data-name="Group 69870"><g data-name="Group 69869"><path d="M51.76 577.886H39.572a1.428 1.428 0 1 0 0 2.856H51.76a1.428 1.428 0 1 0 0-2.856Z" fill="#3b63a9" fill-rule="evenodd" data-name="Path 2887"/></g></g><g data-name="Group 69872"><g data-name="Group 69871"><path d="M54.093 572.267H41.905a1.428 1.428 0 1 0 0 2.857h12.188a1.428 1.428 0 1 0 0-2.857Z" fill="#3b63a9" fill-rule="evenodd" data-name="Path 2888"/></g></g></g></svg>