<svg xmlns="http://www.w3.org/2000/svg" width="61.64" height="53.55" viewBox="243.533 127.134 61.64 53.55"><g data-name="fast-delivery"><g data-name="Group 69873"><path d="M271.46 153.701c-6.094 0-11.052 4.959-11.052 11.053 0 6.097 4.958 11.056 11.053 11.056 6.096 0 11.056-4.96 11.056-11.056 0-6.094-4.96-11.053-11.056-11.053Zm0 19.702c-4.766 0-8.644-3.88-8.644-8.649 0-4.767 3.878-8.645 8.645-8.645 4.769 0 8.648 3.878 8.648 8.645 0 4.769-3.88 8.649-8.648 8.649Z" fill="#fff" fill-rule="evenodd" data-name="Path 2898"/><path d="M274.925 163.55h-2.26v-3.778a1.204 1.204 0 0 0-2.408 0v4.982c0 .665.54 1.204 1.204 1.204h3.464a1.204 1.204 0 0 0 0-2.408Z" fill="#fff" fill-rule="evenodd" data-name="Path 2899"/><path d="M301.624 127.134h-33.78a3.552 3.552 0 0 0-3.549 3.548v19.852a16.002 16.002 0 0 0-3.892 2.772h-4.879a1.204 1.204 0 0 0 0 2.407h2.835a15.91 15.91 0 0 0-1.51 2.715h-5.724a1.204 1.204 0 0 0 0 2.408h4.898a15.844 15.844 0 0 0-.442 2.714h-10.844a1.204 1.204 0 0 0 0 2.408h10.843c.07.93.22 1.836.443 2.715h-4.898a1.204 1.204 0 0 0 0 2.407h5.721c.416.958.923 1.866 1.51 2.715h-2.832a1.204 1.204 0 0 0 0 2.408h4.876a15.869 15.869 0 0 0 11.06 4.48c7.669 0 14.089-5.446 15.595-12.674h14.57a3.552 3.552 0 0 0 3.548-3.548v-33.779a3.552 3.552 0 0 0-3.549-3.548Zm-21.264 2.408h8.748v10.915l-3.688-2.569a1.204 1.204 0 0 0-1.376 0l-3.684 2.568v-10.914Zm-8.9 48.734c-7.453 0-13.517-6.066-13.517-13.522 0-7.454 6.064-13.518 13.518-13.518 7.456 0 13.521 6.064 13.521 13.518 0 7.456-6.066 13.522-13.521 13.522Zm31.305-13.815c0 .629-.512 1.14-1.14 1.14h-14.258c.015-.28.023-.563.023-.847 0-8.782-7.146-15.926-15.929-15.926-1.657 0-3.255.255-4.758.726v-18.872c0-.629.512-1.14 1.14-1.14h10.11v13.221a1.204 1.204 0 0 0 1.892.988l4.888-3.408 4.89 3.408a1.203 1.203 0 0 0 1.893-.988v-13.221h10.109c.629 0 1.14.511 1.14 1.14v33.779Z" fill="#fff" fill-rule="evenodd" data-name="Path 2900"/><path d="M248.549 155.713h2.05a1.204 1.204 0 0 0 0-2.408h-2.05a1.204 1.204 0 0 0 0 2.408Z" fill="#fff" fill-rule="evenodd" data-name="Path 2901"/><path d="M250.6 173.795h-2.051a1.204 1.204 0 0 0 0 2.408h2.05a1.204 1.204 0 0 0 0-2.408Z" fill="#fff" fill-rule="evenodd" data-name="Path 2902"/></g></g></svg>