<svg xmlns="http://www.w3.org/2000/svg" width="29.95" height="34.942" viewBox="298.832 564.652 29.95 34.942"><g data-name="homework"><path d="M327.534 587.115c.689 0 1.248-.559 1.248-1.248v-16.81a4.405 4.405 0 0 0-4.405-4.405h-21.14a4.405 4.405 0 0 0-4.405 4.405v26.132a4.405 4.405 0 0 0 4.405 4.405h21.14a4.405 4.405 0 0 0 4.405-4.405v-3.083a1.248 1.248 0 0 0-2.496 0v3.083a1.897 1.897 0 0 1-1.91 1.91h-21.14a1.897 1.897 0 0 1-1.909-1.91v-26.132a1.897 1.897 0 0 1 1.91-1.91h21.14a1.897 1.897 0 0 1 1.909 1.91v16.81c0 .689.559 1.248 1.248 1.248Z" fill="#3b63a9" fill-rule="evenodd" data-name="Path 2893"/><path d="M321.294 572.14H306.32a1.248 1.248 0 1 0 0 2.495h14.975a1.248 1.248 0 0 0 0-2.495Z" fill="#3b63a9" fill-rule="evenodd" data-name="Path 2894"/><path d="M321.294 579.627H306.32a1.248 1.248 0 1 0 0 2.496h14.975a1.248 1.248 0 0 0 0-2.496Z" fill="#3b63a9" fill-rule="evenodd" data-name="Path 2895"/><path d="M306.32 587.115a1.248 1.248 0 1 0 0 2.496h4.99a1.248 1.248 0 1 0 0-2.496h-4.99Z" fill="#3b63a9" fill-rule="evenodd" data-name="Path 2896"/><path d="m320.408 586.229-2.858 2.87-1.61-1.622a1.253 1.253 0 0 0-1.771 1.772l2.495 2.496a1.248 1.248 0 0 0 1.772 0L322.18 588a1.253 1.253 0 1 0-1.772-1.772Z" fill="#3b63a9" fill-rule="evenodd" data-name="Path 2897"/></g></svg>