<svg xmlns="http://www.w3.org/2000/svg" width="18.373" height="20.904" viewBox="80.566 8.65 18.373 20.904"><g data-name="location (1)"><g data-name="Group 69705"><g data-name="Group 69704"><path d="M93.243 22.462c2.224-3.49 1.945-3.055 2.009-3.146a6.686 6.686 0 0 0 1.238-3.888c0-3.716-3.016-6.778-6.737-6.778-3.71 0-6.737 3.055-6.737 6.778 0 1.4.437 2.78 1.274 3.937l1.973 3.097c-2.11.324-5.697 1.29-5.697 3.418 0 .775.507 1.88 2.918 2.742 1.684.601 3.91.932 6.269.932 4.41 0 9.186-1.244 9.186-3.674 0-2.128-3.582-3.093-5.696-3.418Zm-7.93-3.77a5.495 5.495 0 0 1-1.072-3.264c0-3.063 2.466-5.553 5.512-5.553 3.04 0 5.512 2.491 5.512 5.553a5.468 5.468 0 0 1-1.007 3.17c-.059.079.25-.4-4.505 7.06l-4.44-6.966Zm4.44 9.638c-4.818 0-7.962-1.416-7.962-2.45 0-.695 1.616-1.837 5.196-2.283l2.25 3.53a.612.612 0 0 0 1.032 0l2.25-3.53c3.58.446 5.195 1.588 5.195 2.283 0 1.025-3.115 2.45-7.961 2.45Z" fill="#fff" fill-rule="evenodd" data-name="Path 2858"/></g></g><g data-name="Group 69707"><g data-name="Group 69706"><path d="M89.753 12.536a2.727 2.727 0 0 0-2.724 2.724 2.727 2.727 0 0 0 2.724 2.724 2.727 2.727 0 0 0 2.724-2.724 2.727 2.727 0 0 0-2.724-2.724Zm0 4.358a1.636 1.636 0 0 1-1.635-1.634c0-.902.734-1.635 1.635-1.635s1.634.733 1.634 1.635c0 .9-.733 1.634-1.634 1.634Z" fill="#fff" fill-rule="evenodd" data-name="Path 2859"/></g></g></g></svg>