<svg xmlns="http://www.w3.org/2000/svg" width="35.733" height="31.672" viewBox="169.94 566.287 35.733 31.672"><g data-name="pick"><path d="M174.59 583.176h11.973l6.223 6.224c.886.885.896 2.387 0 3.283a2.321 2.321 0 0 1-3.282 0l-4.925-4.925" stroke-linejoin="round" stroke-linecap="round" stroke-width="2.5" stroke="#3b63a9" fill="transparent" data-name="Path 2889"/><path d="m174.822 591.654.63.065-.104-.065h-.526Z" stroke-linejoin="round" stroke-linecap="round" stroke-width="2.5" stroke="#3b63a9" fill="transparent" data-name="Path 2890"/><path d="m175.452 591.72 9.856 6.239h12.456l7.01-5.213a2.228 2.228 0 1 0-2.66-3.575l-5.626 4.192h-5.355" stroke-linejoin="round" stroke-linecap="round" stroke-width="2.5" stroke="#3b63a9" fill="transparent" data-name="Path 2891"/><path d="M169.94 580.237h3.9v13.653h0-3.9 0v-13.653h0z" stroke-linejoin="round" stroke-linecap="round" stroke-width="2.5" stroke="#3b63a9" fill="transparent" data-name="Rectangle 18113"/><path d="M180.22 582.951v-16.664h24.02v22.52" stroke-linejoin="round" stroke-linecap="round" stroke-width="2.5" stroke="#3b63a9" fill="transparent" data-name="Path 2892"/><path d="M189.444 566.584h5.851v7.802h0-5.851 0v-7.802h0z" stroke-linejoin="round" stroke-linecap="round" stroke-width="2.5" stroke="#3b63a9" fill="transparent" data-name="Rectangle 18114"/></g></svg>