<svg xmlns="http://www.w3.org/2000/svg" width="24" height="12.945" viewBox="224.272 264 25.839 12.945"><g data-name="read"><path d="M242.029 264.384a1.295 1.295 0 0 0-1.827-.014l-9.55 9.439-4.151-4.298a1.295 1.295 0 1 0-1.869 1.793l.007.007 5.061 5.245c.243.247.574.387.92.389h.014c.34-.001.665-.136.906-.374l10.477-10.36a1.295 1.295 0 0 0 .012-1.827Z" fill="#fff" fill-rule="evenodd" data-name="Path 2905"/><path d="M237.47 276.556c.241.247.571.387.917.389h.014c.34-.001.665-.136.906-.374l10.477-10.36a1.295 1.295 0 0 0-1.813-1.84l-9.546 9.438-.34-.354a1.295 1.295 0 1 0-1.862 1.8l1.247 1.301Z" fill="#fff" fill-rule="evenodd" data-name="Path 2906"/></g></svg>