<svg xmlns="http://www.w3.org/2000/svg" width="17.432" height="17.591" viewBox="53.205 261.205 17.432 17.591"><g data-name="g2898"><g data-name="g2900"><g data-name="g2902" transform="translate(52.46 260.46)" clip-path="url(&quot;#a&quot;)"><g data-name="g2908"><path d="M13.864 14.758v2.087a1.49 1.49 0 0 1-1.49 1.491H2.235a1.49 1.49 0 0 1-1.49-1.49V3.725a2.982 2.982 0 0 1 2.98-2.98h8.647c.824 0 1.491.667 1.491 1.49v2.236" stroke-linejoin="round" stroke-linecap="round" stroke-width="1.2" stroke="#3b63a9" fill="transparent" data-name="path2910"/></g><g data-name="g2912"><path d="M3.727.745v2.982H.745" stroke-linejoin="round" stroke-linecap="round" stroke-width="1.2" stroke="#3b63a9" fill="transparent" data-name="path2914"/></g><g data-name="g2916"><path d="M18.178 9.54s-1.993 2.982-4.463 2.982c-2.47 0-4.472-2.981-4.472-2.981s2.002-2.982 4.472-2.982c2.47 0 4.463 2.982 4.463 2.982Z" stroke-linejoin="round" stroke-linecap="round" stroke-width="1.2" stroke="#3b63a9" fill="transparent" data-name="path2918"/></g><g data-name="g2920"><path d="M14.46 9.54a.745.745 0 1 1-1.49 0 .745.745 0 0 1 1.49 0" fill="#3b63a9" fill-rule="evenodd" data-name="path2922"/></g><g data-name="g2924"><path d="M7.156 9.54H2.982" stroke-linejoin="round" stroke-linecap="round" stroke-width="1.2" stroke="#3b63a9" fill="transparent" data-name="path2926"/></g><g data-name="g2928"><path d="M7.156 6.56H2.982" stroke-linejoin="round" stroke-linecap="round" stroke-width="1.2" stroke="#3b63a9" fill="transparent" data-name="path2930"/></g><g data-name="g2932"><path d="M7.156 12.522H2.982" stroke-linejoin="round" stroke-linecap="round" stroke-width="1.2" stroke="#3b63a9" fill="transparent" data-name="path2934"/></g><g data-name="g2936"><path d="M11.628 15.504H2.982" stroke-linejoin="round" stroke-linecap="round" stroke-width="1.2" stroke="#3b63a9" fill="transparent" data-name="path2938"/></g></g></g></g><defs><clipPath id="a"><path d="M0-682.665h19.082v19.082H0v-19.082Z" data-name="path2904" transform="translate(0 682.665)"/></clipPath></defs></svg>