<svg xmlns="http://www.w3.org/2000/svg" width="25" height="25" viewBox="252.434 291.117 44.132 44.132"><g data-name="coin"><g data-name="Group 69874"><path d="M274.5 291.117c-12.164 0-22.066 9.903-22.066 22.067 0 12.163 9.902 22.066 22.066 22.066s22.066-9.903 22.066-22.066c0-12.164-9.902-22.067-22.066-22.067Zm0 39.564c-9.647 0-17.498-7.85-17.498-17.497 0-9.648 7.85-17.498 17.498-17.498 9.647 0 17.498 7.85 17.498 17.498 0 9.647-7.85 17.497-17.498 17.497Z" fill="#3B63A9" fill-rule="evenodd" data-name="Path 2903"/><path d="M278.266 311.943c-1.067-.592-2.198-1.03-3.32-1.495-.647-.264-1.267-.583-1.814-1.021-1.076-.866-.875-2.261.392-2.818.356-.155.73-.21 1.113-.228a8.414 8.414 0 0 1 4.185.83c.657.32.875.219 1.103-.465.237-.73.438-1.468.648-2.197.146-.493-.037-.821-.502-1.022a10.27 10.27 0 0 0-2.644-.784c-1.195-.191-1.195-.191-1.204-1.395-.009-1.705-.009-1.705-1.705-1.696-.246 0-.492-.009-.738 0-.794.027-.93.164-.949.958-.009.355 0 .72 0 1.075-.009 1.067-.009 1.05-1.03 1.414-2.462.893-3.985 2.571-4.149 5.261-.146 2.38 1.094 3.985 3.046 5.152 1.203.72 2.535 1.149 3.811 1.714.502.219.976.474 1.386.82 1.231 1.013 1.003 2.7-.456 3.338-.784.337-1.605.429-2.444.32-1.303-.165-2.553-.502-3.72-1.113-.684-.356-.884-.265-1.121.483-.2.647-.383 1.295-.557 1.942-.237.876-.155 1.085.684 1.486 1.058.511 2.198.775 3.356.967.903.146.939.182.948 1.121 0 .43.01.858.01 1.277.008.538.264.848.82.857.63.01 1.258.01 1.887 0 .511-.009.775-.292.785-.811 0-.584.027-1.168.009-1.751-.028-.593.228-.894.802-1.049a6.368 6.368 0 0 0 3.3-2.115c2.372-2.918 1.46-7.176-1.932-9.055Z" fill="#3B63A9" fill-rule="evenodd" data-name="Path 2904"/></g></g></svg>